<?xml version="1.0" encoding="UTF-8"?>
<svg width="63px" height="37px" viewBox="0 0 63 37" version="1.1" xmlns="http://www.w3.org/2000/svg" xmlns:xlink="http://www.w3.org/1999/xlink">
    <title>icon5</title>
    <g id="Locusview-LP" stroke="none" stroke-width="1" fill="none" fill-rule="evenodd">
        <g transform="translate(-689.000000, -889.000000)" fill="#C4532C" id="overview">
            <g transform="translate(267.000000, 568.000000)">
                <path d="M453.226076,321 C458.576582,321 462.459984,325.139451 462.459984,330.842991 C462.459984,333.228858 461.745439,335.597153 460.593431,337.589021 C461.39627,337.945975 462.17094,338.362989 462.913135,338.835414 C463.042996,338.715218 463.17818,338.59986 463.318212,338.488918 C464.241661,337.754666 465.227985,337.142161 466.261352,336.66068 C465.392755,335.08162 464.864227,333.218973 464.864227,331.317079 C464.864227,326.640061 468.052684,323.245959 472.444582,323.245959 C476.836479,323.245959 480.024936,326.640061 480.024936,331.317079 C480.024936,333.193673 479.480937,335.056874 478.596145,336.645032 C479.664422,337.141128 480.664048,337.759502 481.578485,338.489299 L482.007882,338.829567 C484.138856,340.512798 485.26508,343.257817 484.946799,345.992352 C484.519286,349.59519 481.740451,352.432663 478.188513,352.895885 L477.803375,352.948307 C476.12063,353.167527 474.432236,353.277137 472.746666,353.277137 C470.930363,353.277137 469.119288,353.150116 467.323503,352.896074 C465.864889,355.382033 463.334717,357.137705 460.359613,357.522481 L459.8869,357.590153 C457.784176,357.863702 455.676743,358 453.577785,358 C451.238705,358 448.90904,357.830343 446.603859,357.491981 C444.713008,357.221291 442.961522,356.386348 441.542442,355.076745 C440.848435,354.436567 440.257862,353.705271 439.783344,352.904111 L439.488496,352.948307 C437.801985,353.166574 436.10794,353.276184 434.420487,353.276184 C432.530578,353.276184 430.645377,353.138933 428.779008,352.865384 C427.22433,352.641398 425.7883,351.959909 424.627234,350.895261 C423.453927,349.804878 422.64975,348.424744 422.294745,346.89878 L422.216587,346.58234 C421.501868,343.565679 422.589484,340.39175 424.985065,338.488346 C425.901663,337.758971 426.889946,337.146806 427.933037,336.660823 C427.064782,335.082411 426.536165,333.219377 426.536165,331.317079 C426.536165,326.640061 429.723681,323.245959 434.115578,323.245959 C438.508417,323.245959 441.695933,326.640061 441.695933,331.317079 C441.695933,333.194067 441.151704,335.057658 440.266582,336.646035 C441.328474,337.140294 442.330414,337.757716 443.254755,338.487107 L443.626518,338.789434 C444.333093,338.343525 445.065185,337.949198 445.818822,337.608594 C444.686743,335.62859 443.992168,333.261758 443.992168,330.842991 C443.992168,325.139451 447.876511,321 453.226076,321 Z M459.594992,339.079248 C457.864688,341.321959 455.556211,342.802887 453.226076,342.802887 C450.843844,342.802887 448.527069,341.339067 446.810024,339.103641 C445.866287,339.507256 444.957248,340.005644 444.092688,340.59167 L444.174756,340.522043 C444.115948,340.581567 444.051043,340.630766 443.982093,340.669718 C443.667661,340.88413 443.360338,341.111758 443.059455,341.350696 C440.669524,343.239803 439.587558,346.395622 440.299452,349.391315 L440.396443,349.799255 C440.536226,350.38411 440.739771,350.945648 441.002107,351.475606 C441.027019,351.512968 441.047415,351.552995 441.064748,351.594853 C441.48169,352.406684 442.040065,353.141048 442.719516,353.768095 C443.878698,354.837509 445.307195,355.518998 446.852457,355.741078 C451.068264,356.360614 455.374471,356.391114 459.651486,355.837344 L460.126082,355.768719 C463.668603,355.310262 466.430489,352.488039 466.85706,348.902358 C467.179107,346.190698 466.059475,343.45807 463.934151,341.772933 L463.403055,341.34879 C463.152029,341.1483 462.895679,340.955626 462.6343,340.770931 C462.562207,340.737191 462.494758,340.691512 462.433052,340.63537 C461.537629,340.018553 460.588908,339.499976 459.594992,339.079248 Z M477.603419,338.132381 L477.515515,338.243599 C476.116794,339.961053 474.288787,341.085725 472.444582,341.085725 C470.521295,341.085725 468.649856,339.929109 467.24764,338.153869 C466.245901,338.591608 465.289531,339.171407 464.397353,339.88049 C464.424072,339.909201 464.455525,339.934108 464.486904,339.959124 L465.015175,340.382314 C467.615096,342.444891 468.987093,345.791336 468.592538,349.113953 C468.505892,349.843265 468.340253,350.546836 468.10443,351.215661 C471.251786,351.611601 474.427118,351.604315 477.572668,351.194544 L477.958748,351.141169 C480.722517,350.780885 482.878916,348.578198 483.21038,345.783616 C483.458037,343.660992 482.585119,341.529789 480.931566,340.223999 L480.498403,339.881825 C479.616124,339.176971 478.644882,338.590847 477.603419,338.132381 Z M439.272962,338.133542 L439.186512,338.243599 C437.78779,339.961053 435.959784,341.085725 434.115578,341.085725 C432.192654,341.085725 430.321787,339.929545 428.919891,338.154873 C427.90686,338.598299 426.949153,339.177165 426.065147,339.879918 C424.204429,341.358226 423.360703,343.823977 423.914398,346.161056 L423.993498,346.481308 C424.270345,347.672723 424.896549,348.742137 425.805249,349.587564 C426.70265,350.410117 427.818516,350.939105 429.026665,351.114481 C432.32221,351.595788 435.674134,351.63416 438.997815,351.226947 C438.879154,350.896082 438.778987,350.558774 438.696749,350.21482 L438.599758,349.804974 C437.72684,346.137323 439.055521,342.271421 441.982197,339.957217 L442.13,339.842 L441.811219,339.600648 C441.023928,339.022223 440.172122,338.52981 439.272962,338.133542 Z M453.226076,322.769966 C448.819112,322.769966 445.74177,326.089723 445.74177,330.842991 C445.74177,333.220606 446.534076,335.577648 447.759294,337.425008 C447.816999,337.48564 447.865685,337.55654 447.903891,337.63544 C449.317752,339.668895 451.262497,341.032922 453.226076,341.032922 C455.127757,341.032922 457.086828,339.601528 458.523556,337.527762 C458.538858,337.498762 458.557133,337.472503 458.576644,337.447472 C459.859113,335.567652 460.711323,333.173761 460.711323,330.842991 C460.711323,326.089723 457.633981,322.769966 453.226076,322.769966 Z M434.115578,325.015925 C430.68229,325.015925 428.284826,327.606537 428.284826,331.317079 C428.284826,333.177936 428.898328,335.022596 429.847918,336.470694 C429.910457,336.534877 429.962307,336.610311 430.002125,336.694798 C431.099793,338.265632 432.600446,339.31576 434.115578,339.31576 C435.570911,339.31576 437.068944,338.23199 438.18215,336.651109 L438.142488,336.73811 C438.183542,336.627301 438.244481,336.529856 438.319635,336.448238 C439.298656,334.980369 439.94633,333.124619 439.94633,331.317079 C439.94633,327.606537 437.548867,325.015925 434.115578,325.015925 Z M472.444582,325.015925 C469.011293,325.015925 466.612888,327.606537 466.612888,331.317079 C466.612888,333.168446 467.220347,335.003781 468.161891,336.448509 C468.237559,336.522548 468.300381,336.612677 468.345706,336.715593 C469.442043,338.275053 470.936261,339.31576 472.444582,339.31576 C473.861779,339.31576 475.319467,338.288045 476.422855,336.774353 L476.475635,336.737443 C476.513974,336.63396 476.569705,336.542132 476.638175,336.463977 C477.622913,334.993947 478.275334,333.131231 478.275334,331.317079 C478.275334,327.606537 475.87787,325.015925 472.444582,325.015925 Z" id="icon5"></path>
            </g>
        </g>
    </g>
</svg>