<?xml version="1.0" encoding="UTF-8"?>
<svg width="68px" height="52px" viewBox="0 0 68 52" version="1.1" xmlns="http://www.w3.org/2000/svg" xmlns:xlink="http://www.w3.org/1999/xlink">
    <title>icon4</title>
    <g id="Locusview-LP" stroke="none" stroke-width="1" fill="none" fill-rule="evenodd">
        <g transform="translate(-364.000000, -881.000000)" fill="#C4532C" id="overview">
            <g transform="translate(267.000000, 568.000000)">
                <path d="M145.806498,313.000189 C156.389893,313.000189 165,321.588531 165,332.144954 L164.997151,332.414879 C164.827171,345.816404 150.607722,361.82436 146.313589,364.838992 C146.161651,364.946015 145.984074,365 145.806498,365 C145.628921,365 145.450394,364.946015 145.299406,364.838992 C144.031779,363.94955 141.899697,361.92825 139.519467,359.175539 C134.989937,362.845585 129.328873,364.907357 123.476626,364.997348 C123.471878,364.998295 123.46713,364.998295 123.463331,364.998295 C123.396449,364.998295 123.33092,364.990748 123.267691,364.976363 C123.202884,364.991584 123.134414,364.999811 123.06402,364.999811 C122.99748,364.999811 122.932657,364.99246 122.870325,364.978528 C122.815319,364.989573 122.757648,364.995359 122.698611,364.995359 C122.689115,364.994412 122.681518,364.994412 122.672971,364.995359 C122.669173,364.995359 122.664425,364.995359 122.660626,364.994412 C115.008675,364.881707 107.819183,361.429512 102.933444,355.525264 L102.932779,355.524601 C99.1127254,350.895295 97.005955,345.035453 97.0015264,339.020425 C97.0000933,339.013478 97,339.00604 97,338.998579 L97.001,338.975 L97.0066707,338.485452 C97.1233314,332.642845 99.2179617,326.981288 102.932779,322.490553 L102.939,322.483 L103.228064,322.139399 C108.100685,316.430844 115.164962,313.109713 122.683417,313.009471 C122.687215,313.008524 122.691964,313.008524 122.695762,313.008524 C122.750038,313.008524 122.803423,313.013494 122.855416,313.023058 C122.921752,313.008641 122.991876,313 123.06402,313 C123.131612,313 123.19743,313.007585 123.260666,313.021948 C123.325048,313.008557 123.389855,313.004331 123.452506,313.011081 C127.611712,313.067396 131.726374,314.125473 135.386896,316.073367 C138.388943,314.129763 141.967953,313.000189 145.806498,313.000189 Z M145.806498,314.758962 C140.388109,314.758962 135.539445,317.237406 132.340002,321.117305 C132.245879,321.230416 132.154424,321.345216 132.064512,321.461145 C130.169509,323.880867 128.903351,326.806958 128.507641,329.998234 C128.508269,330.034172 128.506271,330.069824 128.502053,330.10546 C128.437903,330.638401 128.398872,331.143157 128.383018,331.635227 C128.377952,331.803912 128.37547,331.974149 128.37547,332.144954 L128.377369,332.347635 C128.397868,333.959906 128.638093,335.615962 129.049781,337.284502 C129.168173,337.763756 129.303082,338.250066 129.453561,338.742104 C129.613946,339.274515 129.792672,339.814398 129.98954,340.361329 C130.009566,340.416624 130.02962,340.471718 130.049826,340.526804 L129.98954,340.361329 C130.052804,340.537089 130.117942,340.713576 130.184947,340.890778 L130.049826,340.526804 C131.1163,343.434241 132.607119,346.318248 134.268331,349.014131 L134.242441,348.983142 C134.323692,349.066167 134.38872,349.165372 134.432168,349.275277 C138.469613,355.758482 143.454932,361.112028 145.806498,363.01487 C150.084487,359.553204 163.077991,344.671355 163.234676,332.370365 L163.236576,332.144954 C163.236576,322.558365 155.417493,314.758962 145.806498,314.758962 Z M110.366985,351.499124 L110.311611,351.525106 C110.10083,351.629194 109.891215,351.736102 109.682806,351.845801 C109.548065,351.917858 109.413246,351.990229 109.27895,352.063766 L109.682806,351.845801 C109.499182,351.942455 109.316495,352.041276 109.134772,352.142246 L109.27895,352.063766 C109.081635,352.17181 108.885449,352.28237 108.690427,352.395426 L109.134772,352.142246 C108.961884,352.238308 108.789868,352.336315 108.61875,352.436252 L108.690427,352.395426 C108.508077,352.501137 108.326743,352.609031 108.146456,352.71909 L108.61875,352.436252 C108.414557,352.555505 108.211642,352.677505 108.010043,352.802227 L108.146456,352.71909 C107.9717,352.825773 107.797926,352.934491 107.625161,353.04523 L108.010043,352.802227 C107.816833,352.921759 107.624833,353.04379 107.434079,353.168297 L107.625161,353.04523 C107.441592,353.162894 107.259161,353.282839 107.077899,353.405048 L107.434079,353.168297 C107.25582,353.284648 107.078648,353.403162 106.902593,353.523818 L107.077899,353.405048 C106.90204,353.523614 106.727282,353.64431 106.553653,353.767121 L106.902593,353.523818 C106.714673,353.652606 106.528025,353.783835 106.342686,353.917482 L106.553653,353.767121 C106.379174,353.890533 106.205835,354.01608 106.033665,354.143745 L106.342686,353.917482 C106.171617,354.040839 106.001662,354.166256 105.832849,354.293715 L106.033665,354.143745 C105.843521,354.284738 105.654803,354.428315 105.467549,354.574454 L105.832849,354.293715 C105.666144,354.419582 105.500552,354.547441 105.336101,354.677273 L105.467549,354.574454 C105.286938,354.715409 105.107689,354.858747 104.929837,355.004448 L104.92986,355.003909 L104.857352,355.064024 L104.857352,355.064024 C108.671932,359.355354 113.837807,362.136999 119.455695,362.973292 C115.53096,359.953923 112.430486,356.045224 110.366985,351.499124 Z M134.907278,353.242058 L134.916568,353.223895 C132.890102,357.040725 130.093503,360.351802 126.692003,362.971492 C130.964468,362.328721 135.008972,360.55764 138.384644,357.829613 C137.237899,356.434031 136.057397,354.891033 134.907278,353.242058 Z M123.946847,348.550828 L123.946807,362.770042 C128.165171,359.980461 131.544142,356.136182 133.779719,351.573936 C133.505438,351.155942 133.234954,350.732873 132.968445,350.30493 L133.268142,350.41611 C130.296462,349.272294 127.165634,348.646141 123.946847,348.550828 Z M112.251987,350.647024 L111.969654,350.766163 C114.193573,355.670282 117.699365,359.786674 122.181369,362.760585 L122.181197,348.551424 C118.726516,348.655016 115.397396,349.357926 112.251987,350.647024 Z M107.682697,339.877902 L98.7818128,339.877389 C98.9638104,344.884274 100.701315,349.734165 103.737098,353.706161 L103.770726,353.67806 C103.928414,353.548468 104.087155,353.420614 104.246925,353.29451 L103.737098,353.706161 C103.938291,353.540334 104.141204,353.377333 104.345793,353.217188 C104.473023,353.117223 104.600663,353.01893 104.728937,352.921747 C104.801286,352.867279 104.874064,352.812641 104.947043,352.75836 C105.066619,352.6691 105.186552,352.581261 105.307014,352.494382 C105.360755,352.455913 105.414913,352.417117 105.469176,352.378514 C106.034342,351.976251 106.610601,351.595507 107.197428,351.236315 C107.22917,351.217 107.261063,351.197558 107.292988,351.17818 C107.445841,351.085301 107.599252,350.99408 107.753357,350.904325 C107.821388,350.864778 107.889972,350.825197 107.958692,350.785905 C108.094399,350.70825 108.230366,350.631945 108.366849,350.556774 C108.43385,350.519928 108.500786,350.483401 108.567845,350.447145 C108.68061,350.386125 108.793996,350.325785 108.907723,350.266223 C108.99837,350.218806 109.089077,350.171908 109.179999,350.125505 C109.311327,350.058419 109.44291,349.992517 109.574929,349.927648 C109.611485,349.909764 109.647976,349.891931 109.684501,349.874177 C108.451603,346.683037 107.779867,343.32842 107.682697,339.877902 Z M122.181,339.877 L109.450839,339.877662 C109.546489,343.069742 110.163955,346.178256 111.292284,349.141308 C114.738194,347.686965 118.393384,346.897941 122.181244,346.791636 L122.181,339.877 Z M127.956851,339.877501 L123.946,339.877 L123.947191,346.791582 C126.56638,346.865283 129.12766,347.268529 131.59877,347.994473 C130.126925,345.381309 128.849897,342.634347 127.956851,339.877501 Z M145.806498,320.651844 C151.566827,320.651844 156.255048,325.326751 156.255048,331.072832 C156.255048,336.818914 151.566827,341.49382 145.806498,341.49382 C140.045218,341.49382 135.356997,336.818914 135.356997,331.072832 C135.356997,325.326751 140.045218,320.651844 145.806498,320.651844 Z M145.806498,322.410617 C141.016668,322.410617 137.121371,326.296586 137.121371,331.072832 C137.121371,335.849079 141.016668,339.735048 145.806498,339.735048 C150.595377,339.735048 154.491624,335.849079 154.491624,331.072832 C154.491624,326.296586 150.595377,322.410617 145.806498,322.410617 Z M103.736148,324.308993 C100.702677,328.270193 98.9654263,333.112695 98.782068,338.118202 L107.682943,338.118526 C107.764463,335.2592 108.242461,332.460017 109.109682,329.76013 C109.13261,329.690509 109.155332,329.620431 109.178315,329.550418 C109.217049,329.431511 109.25693,329.3129 109.297566,329.194487 C109.336027,329.082131 109.375098,328.970043 109.414843,328.858129 C109.437042,328.796893 109.459238,328.735248 109.48164,328.673659 C109.499403,328.622951 109.517756,328.572721 109.536246,328.522528 L109.68545,328.129611 L109.68545,328.129611 L109.507668,328.042457 C109.394381,327.986342 109.281469,327.929522 109.168938,327.872001 L109.68545,328.129611 C109.429743,328.005058 109.175933,327.876939 108.924078,327.745297 C108.806009,327.683694 108.688685,327.621364 108.571793,327.558266 C108.479044,327.50812 108.386659,327.457631 108.29455,327.406664 C108.194061,327.351112 108.093313,327.294595 107.992899,327.237503 C107.907791,327.189095 107.823585,327.140685 107.739619,327.09187 C107.586834,327.003024 107.434329,326.912533 107.282636,326.820702 C107.247759,326.799665 107.212882,326.77846 107.178049,326.757184 C107.024099,326.663042 106.871121,326.567684 106.719002,326.470954 C106.672153,326.441334 106.626001,326.411816 106.579929,326.382173 C106.443797,326.294377 106.307518,326.205103 106.171955,326.114721 C106.037588,326.025431 105.904216,325.934985 105.771553,325.843463 C105.669318,325.772548 105.567493,325.701343 105.466095,325.629503 C105.397146,325.581109 105.328253,325.531882 105.259559,325.482361 C105.147904,325.40134 105.036736,325.320006 104.926103,325.237898 C104.827985,325.16571 104.730379,325.092384 104.633197,325.018454 C104.564252,324.965279 104.494997,324.912097 104.425962,324.858608 C104.330461,324.78543 104.236072,324.711432 104.142099,324.636857 C104.051138,324.563732 103.95977,324.490322 103.868806,324.416365 C103.824104,324.381078 103.780079,324.3451 103.736148,324.308993 Z M111.294279,328.858974 L111.210489,329.079385 C111.144447,329.256944 111.080232,329.435005 111.017847,329.613554 C110.989951,329.692636 110.962598,329.772365 110.935607,329.852185 L111.017847,329.613554 C110.954216,329.795667 110.892489,329.978288 110.832668,330.161403 L110.935607,329.852185 C110.033775,332.519164 109.536329,335.288314 109.450955,338.118242 L122.181,338.118 L122.181211,331.228277 C118.384971,331.120055 114.733553,330.324 111.294279,328.858974 Z M126.643413,331.027432 C125.757438,331.135009 124.854694,331.202278 123.946579,331.228506 L123.946,338.118 L127.441011,338.118492 C127.39769,337.952971 127.3559,337.787509 127.315682,337.622133 C127.307382,337.585044 127.298285,337.547635 127.289277,337.510257 C127.263589,337.405115 127.239136,337.300149 127.215332,337.195228 C126.832266,335.520293 126.629927,333.911757 126.61233,332.393664 L126.611381,332.143628 L126.613,331.918 L126.614074,331.805115 C126.618644,331.544602 126.628457,331.285341 126.643413,331.027432 Z M123.946928,315.252641 L123.946827,329.467947 C124.922677,329.438208 125.8882,329.358944 126.834645,329.230947 C127.303847,326.169767 128.503922,323.345617 130.250222,320.940542 C128.437687,318.732232 126.322664,316.824587 123.946928,315.252641 Z M112.050509,327.061287 L111.971874,327.2352 C115.198675,328.611757 118.625468,329.361441 122.181335,329.468068 L122.180793,315.258883 C117.796451,318.177877 114.250546,322.308399 112.050509,327.061287 Z M119.49178,315.023962 C113.853441,315.851666 108.672741,318.638623 104.857296,322.949267 C105.059167,323.117303 105.263798,323.280968 105.470533,323.441692 C105.587816,323.532641 105.705257,323.622492 105.82336,323.711402 L105.470533,323.441692 C105.63745,323.57146 105.805738,323.69931 105.975367,323.825225 L105.82336,323.711402 C105.989321,323.836342 106.156588,323.959424 106.325133,324.080629 L105.975367,323.825225 C106.161875,323.96367 106.350004,324.099774 106.539716,324.233515 L106.325133,324.080629 C106.510129,324.213663 106.696666,324.344436 106.884709,324.472921 L106.539716,324.233515 C106.717035,324.35852 106.895737,324.48146 107.075789,324.602316 L106.884709,324.472921 C107.044021,324.581775 107.204414,324.688987 107.365867,324.794542 L107.075789,324.602316 C107.277029,324.737394 107.479956,324.869868 107.684524,324.999712 L107.365867,324.794542 C107.543279,324.91053 107.721971,325.024516 107.901917,325.136481 L107.684524,324.999712 C107.871191,325.118193 108.059225,325.234484 108.248591,325.348564 L107.901917,325.136481 C108.077989,325.246036 108.255261,325.353655 108.433706,325.459319 L108.248591,325.348564 C108.41696,325.449994 108.586383,325.549676 108.756835,325.647596 L108.433706,325.459319 C108.644369,325.58406 108.856668,325.706077 109.070561,325.825337 L108.756835,325.647596 C108.942611,325.754319 109.12961,325.858948 109.317801,325.961465 L109.070561,325.825337 C109.247129,325.923786 109.424783,326.020357 109.603499,326.115032 L109.317801,325.961465 C109.512498,326.067527 109.708472,326.171328 109.905687,326.272848 L109.603499,326.115032 C109.801398,326.219868 110.000598,326.322379 110.201068,326.422541 L109.905687,326.272848 C110.058656,326.35159 110.212371,326.42896 110.366817,326.504948 C112.406746,322.019274 115.573692,318.047118 119.49178,315.023962 Z M126.664084,315.030307 C128.387625,316.354359 129.963027,317.860255 131.372247,319.532841 C132.100597,318.701283 132.903017,317.93034 133.775708,317.227589 C131.53558,316.136525 129.131169,315.39589 126.664084,315.030307 Z" id="icon4"></path>
            </g>
        </g>
    </g>
</svg>