<?xml version="1.0" encoding="UTF-8"?>
<svg width="72px" height="52px" viewBox="0 0 72 52" version="1.1" xmlns="http://www.w3.org/2000/svg" xmlns:xlink="http://www.w3.org/1999/xlink">
    <title>icon3</title>
    <g id="Locusview-LP" stroke="none" stroke-width="1" fill="none" fill-rule="evenodd">
        <g transform="translate(-1006.000000, -689.000000)" fill="#C4532C" id="overview">
            <g transform="translate(267.000000, 568.000000)">
                <path d="M809.009306,121 C810.106988,121 811,121.887138 811,122.977601 L811,165.516363 C811,166.605756 810.106988,167.492894 809.009306,167.492894 L780.996,167.492 L780.996,171.012 L793.014919,171.012767 C793.567531,171.012767 794.014575,171.457942 794.014575,172.006919 C794.014575,172.554826 793.567531,173 793.014919,173 L756.986373,173 C756.433762,173 755.98564,172.554826 755.98564,172.006919 C755.98564,171.457942 756.433762,171.012767 756.986373,171.012767 L769.004,171.012 L769.004,167.492 L740.989617,167.492894 C739.893012,167.492894 739,166.605756 739,165.516363 L739,122.977601 C739,121.887138 739.893012,121 740.989617,121 L809.009306,121 Z M778.995,167.492 L771.004,167.492 L771.004,171.012 L778.995,171.012 L778.995,167.492 Z M808.999,161.725 L740.999,161.725 L741.000389,165.516363 L808.999611,165.505661 L808.999,161.725 Z M775.448014,162.67538 C775.78626,162.843391 776.007089,163.194393 776.007089,163.570009 C776.007089,163.834331 775.899367,164.093303 775.711932,164.280576 C775.521265,164.468919 775.267042,164.571651 775.004201,164.571651 C774.92341,164.571651 774.842619,164.56095 774.761828,164.541688 C774.316938,164.430394 773.992696,164.026955 773.992696,163.570009 C773.992696,162.866933 774.814611,162.360762 775.448014,162.67538 Z M808.999611,122.977601 L740.989617,122.988303 L740.997,155.481 L766.382815,155.481213 L773.451503,140.836476 C773.602313,140.522928 773.907165,140.311042 774.255106,140.276798 C774.608432,140.246834 774.943446,140.392372 775.152426,140.669535 L780.345681,147.549405 L788.812594,142.330378 C789.089439,142.160227 789.434148,142.134544 789.731459,142.26082 L794.950568,144.470639 L805.185191,125.586045 C805.445877,125.101276 806.050195,124.921494 806.539251,125.182605 C807.025075,125.442647 807.207125,126.044061 806.945361,126.52776 L796.278774,146.210672 C796.033169,146.661197 795.481635,146.85596 795.006583,146.653706 L789.42553,144.291928 L780.621449,149.71749 C780.17979,149.989303 779.604557,149.88122 779.294319,149.469219 L774.541645,143.172571 L767.912461,156.904487 C767.74657,157.247999 767.396475,157.468446 767.010832,157.468446 L740.998,157.468 L740.999,159.738 L808.999,159.738 L808.999611,122.977601 Z M756.663855,126.318656 L756.902,127.751 L757.022209,127.735773 C759.722514,127.416326 762.390892,128.130687 764.570831,129.766189 C766.803899,131.442013 768.24629,133.881911 768.633011,136.635357 C769.017577,139.388803 768.301228,142.126197 766.614309,144.344578 C764.557905,147.049868 761.417822,148.475282 758.242191,148.475282 C756.042517,148.475282 753.826685,147.792539 751.939404,146.376756 C749.728249,144.716004 748.296137,142.315865 747.892069,139.598832 L746.442158,139.762707 C746.402301,139.766987 746.364599,139.769128 746.326896,139.769128 C745.8303,139.769128 745.400491,139.402073 745.336935,138.901252 C744.936211,135.77005 745.769976,132.65704 747.686342,130.139022 C749.600554,127.619935 752.386233,125.971934 755.527393,125.498936 C756.071386,125.418676 756.574446,125.782521 756.663855,126.318656 Z M757.228473,129.71207 L758.49943,137.352773 C758.544673,137.621375 758.476808,137.896399 758.311994,138.112565 C758.146103,138.330872 757.898344,138.469989 757.625808,138.501023 L749.881,139.374 L749.8904,139.439842 C750.244067,141.58321 751.391689,143.475145 753.145885,144.790822 C756.876282,147.590284 762.202035,146.852964 765.018953,143.147102 C766.383785,141.352493 766.964404,139.137322 766.650934,136.909311 C766.338542,134.681299 765.171918,132.707978 763.365427,131.352122 C761.594485,130.023107 759.423939,129.449242 757.228473,129.71207 Z M754.859519,127.656319 C752.636147,128.213857 750.681001,129.495874 749.281698,131.336498 C747.882395,133.176053 747.174664,135.395504 747.242529,137.671672 L756.355771,136.645416 L754.859519,127.656319 Z" id="icon3"></path>
            </g>
        </g>
    </g>
</svg>