<?xml version="1.0" encoding="UTF-8"?>
<svg width="55px" height="57px" viewBox="0 0 55 57" version="1.1" xmlns="http://www.w3.org/2000/svg" xmlns:xlink="http://www.w3.org/1999/xlink">
    <title>icon2</title>
    <g id="Locusview-LP" stroke="none" stroke-width="1" fill="none" fill-rule="evenodd">
        <g transform="translate(-693.000000, -686.000000)" fill="#C4532C" id="overview">
            <g transform="translate(267.000000, 568.000000)">
                <path d="M461.456309,157.524775 C461.460347,157.561626 461.463375,157.601465 461.463375,157.62736 L461.463375,172.246153 C461.463375,172.744136 461.874172,173.149495 462.379846,173.149495 L471.102477,173.149495 C471.608151,173.149495 472.017939,172.744136 472.017939,172.246153 L472.017939,147.183658 C472.017939,146.672727 472.437821,146.258405 472.955607,146.258405 L478.210179,146.258405 C478.581613,146.258405 478.912673,146.041284 479.055998,145.703652 C479.17409,145.425777 479.14381,145.10906 478.976261,144.858076 C478.944972,144.812262 478.905608,144.764455 478.860188,144.720633 L454.150778,120.11429 C454.050854,120.013697 453.926707,119.938004 453.791457,119.894181 C453.448284,119.781637 453.091991,119.873266 452.849752,120.11429 L428.141351,144.719637 C427.879935,144.979584 427.804235,145.366019 427.94655,145.703652 C428.072717,145.941688 428.197874,146.065187 428.351292,146.147853 C428.487551,146.220558 428.638951,146.258405 428.79136,146.258405 L434.046941,146.258405 C434.563718,146.258405 434.9836,146.672727 434.9836,147.183658 L434.9836,172.246153 C434.9836,172.438375 435.04315,172.619641 435.155186,172.773019 C435.213727,172.853693 435.282361,172.921418 435.362098,172.978188 C435.521573,173.090733 435.70628,173.149495 435.900071,173.149495 L444.623711,173.149495 C445.128376,173.149495 445.539174,172.744136 445.539174,172.246153 L445.539174,157.62736 C445.542202,155.934217 446.901769,154.592651 448.572211,154.592651 L458.42731,154.592651 C460.077564,154.592651 461.42502,155.902346 461.456309,157.524775 M471.102477,175 L462.379846,175 C460.840618,175 459.589049,173.765002 459.589049,172.246153 L459.589049,157.67915 C459.586021,157.643295 459.582993,157.606445 459.582993,157.583537 C459.582993,156.954087 459.064197,156.44216 458.42731,156.44216 L448.572211,156.44216 C447.935323,156.44216 447.416528,156.954087 447.416528,157.583537 L447.4135,172.246153 C447.4135,173.765002 446.16193,175 444.623711,175 L435.900071,175 C435.308604,175 434.744388,174.818734 434.267985,174.478114 C434.022717,174.305811 433.808739,174.093671 433.633116,173.852647 C433.291962,173.385539 433.109274,172.828793 433.109274,172.246153 L433.109274,148.10891 L428.79136,148.10891 C428.326058,148.10891 427.863785,147.992382 427.455007,147.772274 C426.983649,147.519298 426.599095,147.138839 426.342725,146.672727 C426.297305,146.591058 426.253904,146.503413 426.215549,146.41278 C425.781537,145.386934 426.014693,144.210698 426.809035,143.417909 L451.519455,118.812562 C452.256265,118.079531 453.371575,117.809624 454.380905,118.138293 C454.796749,118.27474 455.178276,118.507796 455.484103,118.814554 L480.191494,143.417909 C480.319679,143.545393 480.433733,143.683832 480.533657,143.830239 C481.051444,144.606097 481.142283,145.5682 480.78498,146.415767 C480.349959,147.444601 479.33962,148.10891 478.210179,148.10891 L473.892265,148.10891 L473.892265,172.246153 C473.892265,173.765002 472.641705,175 471.102477,175" id="icon2"></path>
            </g>
        </g>
    </g>
</svg>