<?xml version="1.0" encoding="UTF-8"?>
<svg width="37px" height="51px" viewBox="0 0 37 51" version="1.1" xmlns="http://www.w3.org/2000/svg" xmlns:xlink="http://www.w3.org/1999/xlink">
    <title>icon6</title>
    <g id="Locusview-LP" stroke="none" stroke-width="1" fill="none" fill-rule="evenodd">
        <g transform="translate(-1023.000000, -882.000000)" fill-rule="nonzero" id="overview" stroke="#C4532C" stroke-width="1.8">
            <g transform="translate(267.000000, 568.000000)">
                <path d="M785.016509,357.009377 L757.033019,357.009377 C757.033019,360.882117 760.153302,364 764.033019,364 L785.016509,364 C788.879717,364 792,360.865707 792,357.009377 L792,328.25921 C792,328.12793 791.884434,327.996651 791.752358,327.996651 L785.264151,327.996651 C785.132075,327.996651 785.016509,328.11152 785.016509,328.25921 L785.016509,357.009377 L785.016509,357.009377 Z M785.016509,315 C788.879717,315 792,318.134293 792,322.007033 L764.016509,322.007033 L764.016509,350.7572 C764.016509,350.88848 763.900943,351.019759 763.752358,351.019759 L757.264151,351.019759 C757.132075,351.019759 757,350.904889 757,350.7572 L757,322.007033 C757,318.134293 760.120283,315 764,315 L785.016509,315 L785.016509,315 Z" id="icon6"></path>
            </g>
        </g>
    </g>
</svg>