<?xml version="1.0" encoding="UTF-8"?>
<svg width="60px" height="55px" viewBox="0 0 60 55" version="1.1" xmlns="http://www.w3.org/2000/svg" xmlns:xlink="http://www.w3.org/1999/xlink">
    <title>icon1</title>
    <g id="Locusview-LP" stroke="none" stroke-width="1" fill="none" fill-rule="evenodd">
        <g transform="translate(-372.000000, -686.000000)" fill="#C4532C" id="overview">
            <g transform="translate(267.000000, 568.000000)">
                <path d="M147.052617,118 C148.677771,118 150,119.389592 150,121.097543 L150,129 L159.554481,129 C162.555658,129 165,131.392634 165,134.334792 L165,167.665208 C165,170.606363 162.555658,173 159.554481,173 L110.445519,173 C107.442295,173 105,170.606363 105,167.665208 L105,134.334792 C105,131.392634 107.442295,129 110.445519,129 L121,129 L121,121.097543 C121,119.389592 122.323252,118 123.948407,118 L147.052617,118 Z M121.469588,130.862748 L110.445519,130.86116 C108.491479,130.86116 106.900814,132.419481 106.900814,134.334792 L106.900814,167.665208 C106.900814,169.580519 108.491479,171.137837 110.445519,171.137837 L159.554481,171.137837 C161.508521,171.137837 163.098163,169.580519 163.098163,167.665208 L163.098163,134.334792 C163.098163,132.419481 161.508521,130.86116 159.554481,130.86116 L149.530412,130.862748 C149.389266,130.949974 149.224815,131 149.049264,131 C148.873584,131 148.709019,130.9499 148.567803,130.862555 L122.431162,130.862748 C122.290167,130.949974 122.125944,131 121.950736,131 C121.775185,131 121.610734,130.949974 121.469588,130.862748 Z M158.05567,162 C158.577135,162 159,162.447198 159,163 C159,163.552802 158.577135,164 158.05567,164 L112.94433,164 C112.421848,164 112,163.552802 112,163 C112,162.447198 112.421848,162 112.94433,162 L158.05567,162 Z M158.05567,137 C158.577135,137 159,137.447198 159,137.998922 C159,138.552802 158.577135,139 158.05567,139 L112.94433,139 C112.421848,139 112,138.552802 112,137.998922 C112,137.447198 112.421848,137 112.94433,137 L158.05567,137 Z M147.052617,119.998345 L123.948407,119.998345 C123.370187,119.998345 122.900448,120.490941 122.900448,121.097543 L122.9,129 L148.098,129 L148.098528,121.097543 C148.098528,120.490941 147.628789,119.998345 147.052617,119.998345 Z M145.085016,122 C145.590276,122 146,122.448034 146,122.999461 C146,123.551966 145.590276,124 145.085016,124 L124.914984,124 C124.409724,124 124,123.551966 124,122.999461 C124,122.448034 124.409724,122 124.914984,122 L145.085016,122 Z" id="icon1"></path>
            </g>
        </g>
    </g>
</svg>