<?xml version="1.0" encoding="UTF-8"?>
<svg width="23px" height="23px" viewBox="0 0 23 23" version="1.1" xmlns="http://www.w3.org/2000/svg" xmlns:xlink="http://www.w3.org/1999/xlink">
    <title>IG</title>
    <g id="Locusview-LP" stroke="none" stroke-width="1" fill="none" fill-rule="evenodd">
        <g transform="translate(-743.000000, -397.000000)" fill="#FFFFFF" fill-rule="nonzero" id="header">
            <g transform="translate(0.000000, -1.000000)">
                <g id="socials" transform="translate(628.000000, 398.000000)">
                    <path d="M130.89564,-1.13686838e-13 C134.614625,-1.13686838e-13 137.64031,3.02564348 137.64031,6.74467043 L137.64031,6.74467043 L137.64031,15.8956396 C137.64031,19.6146665 134.614667,22.64031 130.89564,22.64031 L130.89564,22.64031 L121.74467,22.64031 C118.025643,22.64031 115,19.6146665 115,15.8956396 L115,15.8956396 L115,6.74467043 C115,3.02564348 118.025643,-1.13686838e-13 121.74467,-1.13686838e-13 L121.74467,-1.13686838e-13 Z M130.89564,2.27761435 L121.74467,2.27761435 C119.277604,2.27761435 117.277614,4.27756304 117.277614,6.74467043 L117.277614,6.74467043 L117.277614,15.8956396 C117.277614,18.3627059 119.277604,20.3626957 121.74467,20.3626957 L121.74467,20.3626957 L130.89564,20.3626957 C133.362706,20.3626957 135.362696,18.3627059 135.362696,15.8956396 L135.362696,15.8956396 L135.362696,6.74467043 C135.362696,4.27756304 133.362706,2.27761435 130.89564,2.27761435 L130.89564,2.27761435 Z M126.320155,5.46456522 C129.548932,5.46456522 132.175745,8.09133652 132.175745,11.3201139 C132.175745,14.5488913 129.548932,17.1757037 126.320155,17.1757037 C123.091378,17.1757037 120.464565,14.5488502 120.464565,11.3201139 C120.464565,8.09137761 123.091378,5.46456522 126.320155,5.46456522 Z M126.320155,7.74217957 C124.344119,7.74217957 122.74218,9.34407783 122.74218,11.320155 C122.74218,13.2962322 124.344078,14.8981304 126.320155,14.8981304 C128.296191,14.8981304 129.89813,13.2961911 129.89813,11.320155 C129.89813,9.34407783 128.296232,7.74217957 126.320155,7.74217957 Z M132.187085,4.1054087 C132.962006,4.1054087 133.590204,4.73360672 133.590204,5.50852826 C133.590204,6.2834498 132.962006,6.91164783 132.187085,6.91164783 C131.412163,6.91164783 130.783965,6.2834498 130.783965,5.50852826 C130.783965,4.73360672 131.412163,4.1054087 132.187085,4.1054087 Z" id="IG"></path>
                </g>
            </g>
        </g>
    </g>
</svg>