<?xml version="1.0" encoding="UTF-8"?>
<svg width="23px" height="23px" viewBox="0 0 23 23" version="1.1" xmlns="http://www.w3.org/2000/svg" xmlns:xlink="http://www.w3.org/1999/xlink">
    <title>linkedin</title>
    <g id="Locusview-LP" stroke="none" stroke-width="1" fill="none" fill-rule="evenodd">
        <g transform="translate(-789.000000, -397.000000)" fill="#FFFFFF" id="header">
            <g transform="translate(0.000000, -1.000000)">
                <g id="socials" transform="translate(628.000000, 398.000000)">
                    <path d="M178.200839,6.57142857 C181.580134,6.57142857 184,8.63627648 184,12.9063018 L184,12.9063018 L184,23 L179.090127,23 L179.090127,14.6316025 C179.090127,12.3362133 178.218374,11.0557069 176.404727,11.0557069 C174.429505,11.0557069 173.398682,12.3900898 173.398682,14.6316025 L173.398682,14.6316025 L173.398682,23 L168.666667,23 L168.666667,7.05882289 L173.398682,7.05882289 L173.398682,9.205112 L173.398682,9.205112 L173.41448,9.17726328 C173.578336,8.89555142 175.026349,6.57142857 178.200839,6.57142857 Z M165.380952,7.66666667 L165.380952,23 L161,23 L161,7.66666667 L165.380952,7.66666667 Z M163.738095,0 C165.25116,0 166.47619,1.22561248 166.47619,2.7369291 C166.47619,4.24941186 165.25116,5.47619048 163.738095,5.47619048 C162.22503,5.47619048 161,4.24941186 161,2.7369291 C161,1.22561248 162.22503,0 163.738095,0 Z" id="linkedin"></path>
                </g>
            </g>
        </g>
    </g>
</svg>