<?xml version="1.0" encoding="UTF-8"?>
<svg width="219px" height="30px" viewBox="0 0 219 30" version="1.1" xmlns="http://www.w3.org/2000/svg" xmlns:xlink="http://www.w3.org/1999/xlink">
    <title>logo</title>
    <g id="Locusview-LP" stroke="none" stroke-width="1" fill="none" fill-rule="evenodd">
        <g transform="translate(-611.000000, -132.000000)" fill="#FFFFFF" id="header">
            <g transform="translate(0.000000, -1.000000)">
                <g id="logo" transform="translate(611.000000, 133.000000)">
                    <path d="M2.60650391,29.5527181 C1.97732303,29.5527181 1.38620902,29.3819965 0.831964829,29.0405533 C0.277241805,28.6993558 0,28.2068424 0,27.5612938 L0,3.55661017 C0,2.87372381 0.305013868,2.38096481 0.915281019,2.07710495 C1.52506934,1.77373637 2.19902071,1.62168361 2.93905043,1.62168361 C3.67836191,1.62168361 4.35327093,1.77373637 4.96329867,2.07710495 C5.57332641,2.38096481 5.87834027,2.87372381 5.87834027,3.55661017 L5.87834027,24.204588 L16.8461506,24.204588 C17.4370252,24.204588 17.8808993,24.4799533 18.1770549,25.0292101 C18.4727316,25.5796951 18.6206897,26.1957667 18.6206897,26.8784074 C18.6206897,27.5237104 18.4727316,28.130202 18.1770549,28.6993558 C17.8808993,29.268264 17.4370252,29.5527181 16.8461506,29.5527181 L2.60650391,29.5527181 Z" id="Fill-1"></path>
                    <path d="M88.0138242,28.5182353 C85.9195763,28.5182353 83.9994723,28.0131347 82.2554155,27.0010282 C80.5101692,25.9901124 79.122727,24.6481782 78.0947541,22.9745113 C77.0658295,21.3015588 76.5517241,19.5266812 76.5517241,17.6513073 L76.5517241,3.55254468 C76.5517241,3.07483041 76.8362545,2.63379012 77.4060289,2.22847123 C77.9753274,1.82434306 78.6459721,1.62168361 79.4174871,1.62168361 C80.2251631,1.62168361 80.9138883,1.82434306 81.4839005,2.22847123 C82.0531991,2.63379012 82.3382053,3.07483041 82.3382053,3.55254468 L82.3382053,17.6513073 C82.3382053,18.6441243 82.5858609,19.5733571 83.0818857,20.4371007 C83.5776727,21.3015588 84.2476037,22.0090807 85.0933439,22.5606192 C85.9376568,23.1121578 86.8928318,23.3881652 87.9586311,23.3881652 C88.9868419,23.3881652 89.9234606,23.1121578 90.7689629,22.5606192 C91.6137516,22.0090807 92.2846342,21.2917949 92.7804211,20.409238 C93.276446,19.5266812 93.5245774,18.6079266 93.5245774,17.6513073 L93.5245774,3.49729557 C93.5245774,2.98266918 93.8176722,2.54115261 94.4062408,2.17346027 C94.9931441,1.80624421 95.6735427,1.62168361 96.4450577,1.62168361 C97.2896085,1.62168361 97.9783337,1.80624421 98.5114712,2.17346027 C99.0436571,2.54115261 99.3103448,2.98266918 99.3103448,3.49729557 L99.3103448,17.6513073 C99.3103448,19.6007435 98.7955257,21.4025313 97.7675528,23.0573849 C96.7383904,24.7117623 95.36094,26.0358358 93.6347259,27.0286527 C91.9075601,28.0214697 90.033609,28.5182353 88.0138242,28.5182353" id="Fill-3"></path>
                    <path d="M111.121797,28.5182353 C109.271115,28.5182353 107.609953,28.2974227 106.137087,27.8567492 C104.664709,27.4155997 103.503388,26.8559539 102.653854,26.1754321 C101.804077,25.496338 101.37931,24.8074882 101.37931,24.1088826 C101.37931,23.7781396 101.46441,23.4112289 101.634121,23.006485 C101.804077,22.6026929 102.049106,22.2541039 102.370677,21.9592905 C102.691025,21.6654288 103.040473,21.518617 103.418287,21.518617 C103.908835,21.518617 104.428239,21.7301498 104.976254,22.1522636 C105.523046,22.5750913 106.250553,22.997919 107.157064,23.4197949 C108.063331,23.8428605 109.327849,24.0539174 110.951841,24.0539174 C112.839692,24.0539174 114.114236,23.741972 114.775473,23.1166534 C115.435732,22.4925245 115.76684,21.8129545 115.76684,21.0774675 C115.76684,20.1225956 115.435732,19.3785426 114.775473,18.8453086 C114.114236,18.3130264 113.264459,17.8806809 112.226385,17.5501758 C111.187333,17.2196706 110.082745,16.8979694 108.912864,16.5855481 C107.74176,16.2738405 106.637416,15.8605306 105.599343,15.3453804 C104.560046,14.8314199 103.710513,14.1149685 103.050499,13.1957883 C102.389262,12.2780357 102.059132,11.0654696 102.059132,9.5583281 C102.059132,8.30959447 102.379236,7.06966479 103.021888,5.83830112 C103.663317,4.60741334 104.692832,3.59733821 106.108965,2.80688602 C107.525098,2.01714766 109.422486,1.62168361 111.801619,1.62168361 C113.236092,1.62168361 114.595981,1.76897137 115.880062,2.06283303 C117.163165,2.35717059 118.220802,2.75168286 119.05175,3.24755955 C119.881964,3.74367419 120.298172,4.28618804 120.298172,4.87367343 C120.298172,5.13112956 120.203535,5.48923629 120.014994,5.9484695 C119.825475,6.40817861 119.57042,6.81220866 119.250072,7.1607976 C118.928991,7.51033832 118.522809,7.68451382 118.032261,7.68451382 C117.654202,7.68451382 117.182728,7.54674386 116.616128,7.27096598 C116.049773,6.995664 115.38878,6.72940391 114.63364,6.47194778 C113.877766,6.21544342 112.952914,6.08600152 111.858107,6.08600152 C110.762567,6.08600152 109.884178,6.26089086 109.224164,6.60995569 C108.563171,6.95949641 108.081916,7.3728063 107.779909,7.84964742 C107.477168,8.32767826 107.326775,8.80594705 107.326775,9.28278817 C107.326775,10.0915621 107.647123,10.7159289 108.289775,11.1566025 C108.931204,11.5977519 109.781227,11.9653764 110.838619,12.2592381 C111.895278,12.5535756 113.009892,12.8567171 114.180751,13.1684246 C115.350632,13.480846 116.455221,13.9315132 117.494273,14.5187606 C118.532346,15.1069599 119.381879,15.8966982 120.043116,16.8886896 C120.703375,17.8806809 121.034483,19.2036533 121.034483,20.8571308 C121.034483,23.1718565 120.174924,25.027825 118.457028,26.4236084 C116.738398,27.8205816 114.293973,28.5182353 111.121797,28.5182353" id="Fill-5"></path>
                    <path d="M134.511081,28.5182353 C133.86943,28.5182353 133.295168,28.4163941 132.786095,28.2153291 C132.277267,28.0125984 131.946676,27.7287279 131.796029,27.3606243 L122.295057,5.03883726 C122.257212,4.9286679 122.210334,4.78209269 122.153933,4.59768394 C122.097044,4.41422697 122.068966,4.24909191 122.068966,4.10180286 C122.068966,3.62495752 122.285535,3.20188815 122.719406,2.83426038 C123.152545,2.46734646 123.661373,2.17276835 124.246134,1.95242963 C124.830652,1.73185297 125.386114,1.62168361 125.914719,1.62168361 C126.290969,1.62168361 126.658917,1.70425115 127.017831,1.86962416 C127.37528,2.03499716 127.611382,2.30197345 127.724428,2.66864943 L134.511081,20.0856396 L141.1842,2.77881878 C141.334358,2.4121428 141.560938,2.12708257 141.862963,1.92482781 C142.164744,1.72328689 142.54197,1.62168361 142.993909,1.62168361 C143.408491,1.62168361 143.92733,1.73185297 144.549448,1.95242963 C145.171322,2.17276835 145.717506,2.47567459 146.189466,2.86162426 C146.660694,3.24733599 146.896552,3.66112543 146.896552,4.10180286 C146.896552,4.28597366 146.877019,4.45134667 146.839907,4.59768394 C146.802062,4.74521094 146.745417,4.89249999 146.67046,5.03883726 L137.225645,27.3606243 C137.036421,27.7287279 136.68825,28.0125984 136.179178,28.2153291 C135.67035,28.4163941 135.113666,28.5182353 134.511081,28.5182353" id="Fill-7"></path>
                    <path d="M153.074101,29.5527181 C152.166621,29.5527181 151.427826,29.3446131 150.856951,28.9266832 C150.285565,28.5097361 150,28.0542146 150,27.5608558 L150,3.55654429 C150,2.98751098 150.285565,2.52339011 150.856951,2.16221612 C151.427826,1.80227061 152.166621,1.62168361 153.074101,1.62168361 C153.939983,1.62168361 154.679289,1.80227061 155.29074,2.16221612 C155.900916,2.52339011 156.206897,2.98751098 156.206897,3.55654429 L156.206897,27.5608558 C156.206897,28.0542146 155.900916,28.5097361 155.29074,28.9266832 C154.679289,29.3446131 153.939983,29.5527181 153.074101,29.5527181" id="Fill-9"></path>
                    <path d="M192.324923,28.5182353 C191.799904,28.5182353 191.332359,28.4261499 190.92059,28.242693 C190.508093,28.0582842 190.208602,27.7287279 190.021875,27.2504549 L181.315301,4.98363361 C181.239883,4.80017664 181.174892,4.62528576 181.118874,4.4601507 C181.062371,4.29477769 181.034483,4.15700651 181.034483,4.0465992 C181.034483,3.56951592 181.239883,3.15644032 181.652137,2.80665856 C182.063907,2.45782858 182.559825,2.17276835 183.140619,1.95242963 C183.72117,1.73185297 184.272864,1.62168361 184.797882,1.62168361 C185.209651,1.62168361 185.584318,1.70425115 185.921154,1.86962416 C186.258476,2.03499716 186.483033,2.30197345 186.595312,2.66864943 L192.830298,19.8096213 L197.604933,4.59768394 C197.791903,4.0465992 198.072964,3.69776923 198.447388,3.55048018 C198.821569,3.40414291 199.233824,3.33014146 199.683181,3.33014146 C200.169399,3.33014146 200.600327,3.40414291 200.975236,3.55048018 C201.348932,3.69776923 201.629993,4.0465992 201.81769,4.59768394 L206.479804,19.9200286 L212.771051,2.66864943 C212.995851,1.97146538 213.575918,1.62168361 214.512463,1.62168361 C215.036269,1.62168361 215.588447,1.72328689 216.169484,1.92482781 C216.749793,2.12708257 217.245468,2.4121428 217.657965,2.77881878 C218.069735,3.1466845 218.275862,3.58759987 218.275862,4.10180286 C218.275862,4.21197221 218.256704,4.35926127 218.219844,4.54295618 C218.182014,4.72712698 218.125753,4.87346425 218.051062,4.98363361 L209.344731,27.3606243 C209.194379,27.8015397 208.903861,28.1049218 208.473904,28.2700569 C208.042976,28.4354299 207.565731,28.5182353 207.041683,28.5182353 C206.442216,28.5182353 205.926898,28.4261499 205.496698,28.242693 C205.066013,28.0582842 204.775495,27.7834557 204.626356,27.41559 L199.683181,13.1956527 L194.852528,27.2504549 C194.702661,27.6913703 194.39347,28.0125984 193.925683,28.2153291 C193.457168,28.4163941 192.923177,28.5182353 192.324923,28.5182353" id="Fill-11"></path>
                    <path d="M37.8592555,7.16707813 C36.490418,8.52312225 37.5072309,11.8133351 39.8143594,11.9665112 C41.2749527,11.8666137 41.5155911,10.4165635 41.3208306,9.46625683 C40.9445437,7.62916797 38.9878957,6.04899491 37.8592555,7.16707813" id="Fill-13"></path>
                    <path d="M36.2068966,15.4085702 C36.2068966,15.1116169 36.2042696,14.8168705 36.1992545,14.5243311 C35.1938508,13.7156176 34.6586703,13.0780631 34.0781153,11.9974081 L32.1594898,11.9974081 L19.0376576,11.9974081 C19.0400457,11.9873543 19.0424338,11.9768102 19.0445832,11.9665112 C18.7682762,13.068745 18.6206897,14.2214926 18.6206897,15.4085702 C18.6206897,23.0886505 24.7658319,29.3555666 32.3925715,29.5527181 C34.5048746,29.3555666 36.2068966,23.0886505 36.2068966,15.4085702" id="Fill-15"></path>
                    <path d="M46.1570558,11.9665112 L44.088449,11.9665112 C43.9468205,13.518613 43.4931018,14.3639175 42.361919,15.1857749 C42.3621497,15.2232419 42.3621497,15.2609507 42.3621497,15.2986594 C42.3621497,21.4427685 40.6487676,26.6642218 37.2413793,28.5182353 C37.3142696,28.4930962 37.3880825,28.4698908 37.4605114,28.443543 C38.1220596,28.2030289 38.7603105,27.9119947 39.370651,27.5750331 C39.9809915,27.2378299 40.5634214,26.8546993 41.1135583,26.4299924 C41.6639257,26.0052855 42.1817694,25.5392441 42.6627066,25.036219 C43.1436438,24.5331939 43.5879053,23.9931853 43.9906469,23.4210275 C44.3933886,22.8488698 44.7550719,22.2443212 45.070622,21.6122161 C45.3861722,20.9801111 45.6560507,20.320208 45.8754134,19.6370995 C46.0950068,18.953991 46.2638538,18.2481605 46.3782638,17.5234757 C46.4924431,16.7987909 46.5517241,16.0557351 46.5517241,15.2986594 C46.5517241,14.5415837 46.4924431,13.7982863 46.3782638,13.0738432 C46.3192135,12.6994146 46.2449392,12.330304 46.1570558,11.9665112" id="Fill-17"></path>
                    <path d="M32.4335129,0.587200856 C28.1152282,0.696180452 24.270831,2.69196012 21.7241379,5.75961465 L21.8215682,5.75961465 C21.825668,5.75477111 21.8295267,5.75041193 21.8338676,5.74556839 L32.2466107,5.74556839 L34.3956242,5.74556839 C34.6577696,5.36535069 34.8463599,5.14714932 35.1724138,4.84660781 C34.8369545,3.62143498 34.23525,1.50941041 33.5520321,0.658643036 C33.5520321,0.658643036 33.0060365,0.601731469 32.4335129,0.587200856" id="Fill-19"></path>
                    <path d="M42.555901,4.83344362 C42.0382044,4.34451366 41.4807805,3.89153098 40.8883469,3.47895961 C40.2961616,3.06638824 39.6692149,2.69399325 39.0122244,2.36647361 C38.4436272,2.08288953 37.8516902,1.83525273 37.2413793,1.62168361 C37.2562771,1.64188927 37.2701816,1.65974544 37.2833413,1.67548706 C37.9361108,2.31008572 38.4716846,3.69158893 39.0298534,4.39314821 C39.9147794,4.74792199 40.4972812,5.09071335 41.3385071,5.75139142 C41.8899719,5.75139142 43.0758323,5.75914475 43.4482759,5.75961465 C43.165467,5.43890855 42.8687536,5.12877517 42.555901,4.83344362" id="Fill-21"></path>
                    <path d="M63.0406121,28.5182353 C56.506807,28.5182353 50.9310654,23.7567477 49.782545,17.1965796 C49.6965866,16.4403274 49.6551724,15.7010393 49.6551724,14.9693727 C49.6551724,12.152112 50.2188383,9.62987822 51.3305194,7.4720026 C52.4477384,5.30257176 54.0373677,3.5946121 56.0551038,2.39557377 C58.1886551,1.1279417 60.5263877,0.516498531 63.0030504,0.593697226 C66.7194892,0.70138203 70.2724383,2.20896928 72.5068763,4.62597683 C73.4683107,5.62464275 73.5239309,6.53775088 73.40017,7.12682118 C73.2203074,7.98289078 72.5362515,8.7234082 71.5697607,9.10768068 C70.6136235,9.48777362 69.4865325,9.26920789 68.6987004,8.55106334 C67.230665,7.21213311 65.3371714,6.47505767 63.3671097,6.47505767 C61.1314678,6.47505767 59.0571484,7.39209949 57.5265102,9.05728026 C55.9970759,10.7214776 55.233081,12.8982841 55.3756228,15.186955 C55.6294048,19.2629969 58.8305745,22.5407453 62.8217431,22.8102032 C64.9420515,22.9535371 66.9901258,22.2560444 68.5927573,20.8453243 L68.6377831,20.8099211 C68.6712515,20.7873023 68.7044792,20.7651753 68.7379476,20.7437859 C70.163365,19.8292026 71.5801143,20.4627728 72.2935453,21.4375907 C73.0011976,22.4045412 73.1926177,23.9583494 71.9405619,25.0848603 C69.4807538,27.298791 66.3200352,28.5182353 63.0406121,28.5182353" id="Fill-23"></path>
                    <path d="M162.864023,28.5182353 C162.246326,28.5182353 161.671851,28.3708052 161.141091,28.0766809 C160.609837,27.7823113 160.344828,27.3407569 160.344828,26.752263 L160.344828,3.38814661 C160.344828,2.79940738 160.609837,2.35760765 161.141091,2.06348335 C161.671851,1.76911373 162.246326,1.62168361 162.864023,1.62168361 L176.051764,1.62168361 C176.66872,1.62168361 177.113037,1.88563504 177.385456,2.41304726 C177.65664,2.94095011 177.792726,3.49828991 177.792726,4.08702914 C177.792726,4.77413688 177.644538,5.36900881 177.348409,5.87164493 C177.051786,6.37452636 176.619571,6.62572176 176.051764,6.62572176 L167.320282,6.62572176 C166.659364,6.62572176 166.123664,7.15804015 166.123664,7.81448439 L166.123664,11.6555173 C166.123664,12.3119615 166.659364,12.8440346 167.320282,12.8440346 L176.190073,12.8440346 C176.75788,12.8440346 177.190095,13.0711898 177.486718,13.524519 C177.782847,13.9785841 177.931034,14.4996183 177.931034,15.0883576 C177.931034,15.5794642 177.795442,16.7270151 177.523518,17.2051204 C177.25184,17.6837164 176.807029,17.9228917 176.190073,17.9228917 L167.681367,17.9228917 C166.820889,17.9228917 166.123664,18.6156415 166.123664,19.469804 L166.123664,22.3254346 C166.123664,22.9818788 166.659364,23.5141972 167.320282,23.5141972 L176.051764,23.5141972 C176.619571,23.5141972 177.051786,23.7661285 177.348409,24.2687646 C177.644538,24.7716461 177.792726,25.366518 177.792726,26.0528898 C177.792726,26.641629 177.65664,27.2001954 177.385456,27.7268717 C177.113037,28.2550198 176.66872,28.5182353 176.051764,28.5182353 L162.864023,28.5182353 Z" id="Fill-25"></path>
                </g>
            </g>
        </g>
    </g>
</svg>