<?xml version="1.0" encoding="UTF-8"?>
<svg width="22px" height="22px" viewBox="0 0 22 22" version="1.1" xmlns="http://www.w3.org/2000/svg" xmlns:xlink="http://www.w3.org/1999/xlink">
    <title>twitter</title>
    <g id="twitter" stroke="none" stroke-width="1" fill="none" fill-rule="evenodd">
        <path d="M22,4.1164 C21.19062,4.47544 20.32063,4.71799 19.40774,4.82711 C20.33944,4.26853 21.05521,3.38402 21.39225,2.33 C20.52006,2.84722 19.55415,3.22287 18.52598,3.42527 C17.70274,2.54802 16.5297,2 15.23148,2 C12.73888,2 10.71785,4.02081 10.71785,6.51341 C10.71785,6.86717 10.75778,7.21169 10.83478,7.54202 C7.08356,7.35381 3.75771,5.55685 1.53164,2.8261 C1.14312,3.4927 0.92048,4.26798 0.92048,5.09518 C0.92048,6.66114 1.71732,8.04263 2.92842,8.85212 C2.18856,8.82858 1.49259,8.62563 0.88407,8.28749 C0.88363,8.30641 0.88363,8.32522 0.88363,8.34436 C0.88363,10.53116 2.43947,12.35529 4.50428,12.7701 C4.12555,12.87317 3.7268,12.92839 3.31518,12.92839 C3.02434,12.92839 2.74153,12.90012 2.46587,12.84743 C3.04029,14.64054 4.70712,15.94558 6.68228,15.98188 C5.13755,17.19254 3.19143,17.91414 1.07668,17.91414 C0.71236,17.91414 0.3531,17.89269 0,17.85089 C1.99749,19.13162 4.36997,19.87896 6.91889,19.87896 C15.22092,19.87896 19.76095,13.00121 19.76095,7.03679 C19.76095,6.8411 19.75644,6.6464 19.74775,6.4528 C20.62973,5.81645 21.39489,5.02159 22,4.1164" id="Fill-1" fill="#FFFFFF"></path>
    </g>
</svg>